Jump_normalized_precision_landing11_filtered_grf
version=1
nRows=28
nColumns=37
inDegrees=yes
endheader
time		1_ground_force_vx		1_ground_force_vy		1_ground_force_vz		1_ground_force_px		1_ground_force_py		1_ground_force_pz		1_ground_torque_x		1_ground_torque_y		1_ground_torque_z		2_ground_force_vx		2_ground_force_vy		2_ground_force_vz		2_ground_force_px		2_ground_force_py		2_ground_force_pz		2_ground_torque_x		2_ground_torque_y		2_ground_torque_z		3_ground_force_vx		3_ground_force_vy		3_ground_force_vz		3_ground_force_px		3_ground_force_py		3_ground_force_pz		3_ground_torque_x		3_ground_torque_y		3_ground_torque_z		4_ground_force_vx		4_ground_force_vy		4_ground_force_vz		4_ground_force_px		4_ground_force_py		4_ground_force_pz		4_ground_torque_x		4_ground_torque_y		4_ground_torque_z		
0.458667		-0.000000		0.000000		0.000000		0.083522		0.000000		0.166275		0.000000		0.000000		-0.000000		0.000000		0.000000		0.000000		-0.190458		0.000000		0.249503		0.000000		-0.000000		0.000000		-44.178319		585.688373		24.058148		0.381869		1.273981		1.870317		2.551073		-33.820562		-1.389231		62.346298		590.614048		35.877883		-0.351145		1.267180		1.863918		4.048780		38.354587		2.329912		
0.461596		0.000000		0.000000		0.000000		0.083522		0.000000		0.166275		0.000000		0.000000		-0.000000		0.000000		0.000000		0.000000		-0.190458		0.000000		0.249503		0.000000		-0.000000		0.000000		-42.652159		584.108750		20.651845		0.381829		1.273995		1.870315		2.475631		-33.903062		-1.198677		61.839565		588.292633		32.988173		-0.351116		1.267187		1.863976		4.032864		38.365480		2.151319		
0.464525		0.000000		-0.000000		-0.000000		0.083522		0.000000		0.166275		-0.000000		-0.000000		0.000000		0.000000		0.000000		0.000000		-0.190458		0.000000		0.249503		0.000000		-0.000000		0.000000		-41.148918		582.469060		17.166397		0.381792		1.274001		1.870305		2.400774		-33.983308		-1.001546		61.369301		585.767661		29.992340		-0.351082		1.267193		1.864031		4.019559		38.366538		1.964433		
0.467455		0.000000		-0.000000		-0.000000		0.083522		0.000000		0.166275		-0.000000		-0.000000		0.000000		-0.000000		0.000000		0.000000		-0.190458		0.000000		0.249503		0.000000		-0.000000		0.000000		-39.686264		580.702869		13.618087		0.381760		1.273995		1.870299		2.327221		-34.052694		-0.798569		60.934637		583.082697		26.922320		-0.351041		1.267199		1.864082		4.009112		38.363138		1.771315		
0.470384		0.000000		-0.000000		-0.000000		0.083522		0.000000		0.166275		-0.000000		-0.000000		0.000000		-0.000000		-0.000000		0.000000		-0.190458		0.000000		0.249503		-0.000000		0.000000		-0.000000		-38.273366		578.735351		10.023929		0.381737		1.273981		1.870310		2.255215		-34.101361		-0.590644		60.526957		580.279841		23.823788		-0.350996		1.267204		1.864130		4.001049		38.358577		1.574833		
0.473313		0.000000		-0.000000		-0.000000		0.083522		0.000000		0.166275		-0.000000		-0.000000		0.000000		-0.000000		-0.000000		-0.000000		-0.190458		0.000000		0.249503		-0.000000		0.000000		-0.000000		-36.913748		576.500364		6.389800		0.381721		1.273969		1.870341		2.184765		-34.120595		-0.378179		60.136646		577.386027		20.704693		-0.350953		1.267208		1.864176		3.994576		38.352867		1.375302		
0.476242		0.000000		-0.000000		-0.000000		0.083522		0.000000		0.166275		-0.000000		-0.000000		0.000000		-0.000000		-0.000000		-0.000000		-0.190458		0.000000		0.249503		-0.000000		0.000000		-0.000000		-35.605234		573.949865		2.717019		0.381708		1.273966		1.870393		2.115694		-34.104626		-0.161442		59.754782		574.403431		17.563312		-0.350916		1.267209		1.864222		3.988751		38.342577		1.172379		
0.479172		-0.000000		0.000000		0.000000		0.083522		0.000000		0.166275		0.000000		0.000000		-0.000000		-0.000000		-0.000000		-0.000000		-0.190458		0.000000		0.249503		-0.000000		0.000000		-0.000000		-34.338872		571.059708		-0.991605		0.381692		1.273983		1.870463		2.047610		-34.052036		0.059134		59.373562		571.308949		14.385872		-0.350891		1.267208		1.864269		3.982626		38.321940		0.964961		
0.482101		-0.000000		0.000000		0.000000		0.083522		0.000000		0.166275		0.000000		0.000000		-0.000000		0.000000		-0.000000		-0.000000		-0.190458		0.000000		0.249503		-0.000000		0.000000		-0.000000		-33.098608		567.832122		-4.729878		0.381666		1.274022		1.870544		1.979881		-33.966397		0.282934		58.985677		568.060069		11.148406		-0.350877		1.267205		1.864320		3.975375		38.284752		0.751349		
0.485030		-0.000000		0.000000		0.000000		0.083522		0.000000		0.166275		0.000000		0.000000		-0.000000		0.000000		0.000000		-0.000000		-0.190458		0.000000		0.249503		0.000000		-0.000000		0.000000		-31.863177		564.293368		-8.490472		0.381625		1.274082		1.870628		1.911683		-33.855716		0.509401		58.583266		564.607354		7.819764		-0.350873		1.267200		1.864372		3.966332		38.226278		0.529429		
0.487960		-0.000000		0.000000		0.000000		0.083522		0.000000		0.166275		0.000000		0.000000		-0.000000		0.000000		0.000000		0.000000		-0.190458		0.000000		0.249503		0.000000		-0.000000		0.000000		-30.610206		560.485731		-12.270230		0.381568		1.274156		1.870709		1.842143		-33.730408		0.738432		58.157245		560.910398		4.357734		-0.350874		1.267193		1.864423		3.954951		38.144399		0.296343		
0.490889		-0.000000		0.000000		0.000000		0.083522		0.000000		0.166275		0.000000		0.000000		-0.000000		0.000000		0.000000		0.000000		-0.190458		0.000000		0.249503		0.000000		-0.000000		0.000000		-29.322479		556.456759		-16.090659		0.381498		1.274231		1.870787		1.770557		-33.600137		0.971595		57.697573		556.952758		0.742160		-0.350875		1.267184		1.864470		3.940753		38.039957		0.050684		
0.493818		0.000000		0.000000		0.000000		0.083522		0.000000		0.166275		0.000000		0.000000		-0.000000		0.000000		0.000000		0.000000		-0.190458		0.000000		0.249503		0.000000		-0.000000		0.000000		-27.991506		552.243630		-19.991545		0.381424		1.274301		1.870865		1.696507		-33.470374		1.211654		57.191510		552.746492		-3.043924		-0.350871		1.267176		1.864513		3.923100		37.916114		-0.208808		
0.496747		0.000000		-0.000000		-0.000000		0.083522		0.000000		0.166275		-0.000000		-0.000000		0.000000		0.000000		0.000000		0.000000		-0.190458		0.000000		0.249503		0.000000		-0.000000		0.000000		-26.618849		547.859285		-24.027236		0.381354		1.274362		1.870949		1.619916		-33.340547		1.462211		56.620711		548.322899		-7.007878		-0.350862		1.267171		1.864551		3.900899		37.776850		-0.482819		
0.499677		0.000000		-0.000000		-0.000000		0.083522		0.000000		0.166275		-0.000000		-0.000000		0.000000		-0.000000		0.000000		0.000000		-0.190458		0.000000		0.249503		0.000000		-0.000000		0.000000		-25.215039		543.286640		-28.247713		0.381295		1.274415		1.871045		1.541084		-33.204452		1.726445		55.959969		543.714593		-11.148771		-0.350848		1.267168		1.864587		3.872422		37.624977		-0.771502		
0.502606		0.000000		-0.000000		-0.000000		0.083522		0.000000		0.166275		-0.000000		-0.000000		0.000000		-0.000000		-0.000000		0.000000		-0.190458		0.000000		0.249503		-0.000000		0.000000		-0.000000		-23.795878		538.482099		-32.677043		0.381251		1.274467		1.871155		1.460615		-33.052594		2.005757		55.180291		538.935317		-15.460439		-0.350831		1.267171		1.864626		3.835475		37.460353		-1.074632		
0.505535		0.000000		-0.000000		-0.000000		0.083522		0.000000		0.166275		-0.000000		-0.000000		0.000000		-0.000000		-0.000000		-0.000000		-0.190458		0.000000		0.249503		-0.000000		0.000000		-0.000000		-22.377712		533.388064		-37.303514		0.381225		1.274522		1.871282		1.379245		-32.875260		2.299197		54.257116		533.965864		-19.933123		-0.350813		1.267182		1.864673		3.788010		37.279311		-1.391652		
0.508465		0.000000		-0.000000		-0.000000		0.083522		0.000000		0.166275		-0.000000		-0.000000		0.000000		-0.000000		-0.000000		-0.000000		-0.190458		0.000000		0.249503		-0.000000		0.000000		-0.000000		-20.972726		527.949507		-42.081699		0.381212		1.274582		1.871414		1.297604		-32.664773		2.603639		53.178768		528.748829		-24.548243		-0.350793		1.267199		1.864732		3.728849		37.075412		-1.721304		
0.511394		-0.000000		0.000000		0.000000		0.083522		0.000000		0.166275		0.000000		0.000000		-0.000000		-0.000000		-0.000000		-0.000000		-0.190458		0.000000		0.249503		-0.000000		0.000000		-0.000000		-19.584925		522.129991		-46.950686		0.381209		1.274648		1.871549		1.215925		-32.416353		2.914931		51.947967		523.193998		-29.277418		-0.350773		1.267221		1.864803		3.657953		36.841088		-2.061598		
0.514323		-0.000000		0.000000		0.000000		0.083522		0.000000		0.166275		0.000000		0.000000		-0.000000		-0.000000		-0.000000		-0.000000		-0.190458		0.000000		0.249503		-0.000000		0.000000		-0.000000		-18.210228		515.916351		-51.858623		0.381215		1.274713		1.871680		1.134003		-32.127633		3.229396		50.575124		517.191681		-34.082510		-0.350754		1.267247		1.864884		3.576023		36.569166		-2.409888		
0.517253		-0.000000		0.000000		0.000000		0.083522		0.000000		0.166275		0.000000		0.000000		-0.000000		0.000000		0.000000		-0.000000		-0.190458		0.000000		0.249503		0.000000		-0.000000		0.000000		-16.836194		509.309682		-56.774169		0.381226		1.274774		1.871806		1.051127		-31.797556		3.544568		49.069502		510.626611		-38.923224		-0.350737		1.267277		1.864971		3.483822		36.253340		-2.763473		
0.520182		-0.000000		0.000000		0.000000		0.083522		0.000000		0.166275		0.000000		0.000000		-0.000000		0.000000		0.000000		0.000000		-0.190458		0.000000		0.249503		0.000000		-0.000000		0.000000		-15.442452		502.312435		-61.684083		0.381239		1.274826		1.871925		0.966111		-31.425709		3.859089		47.435089		503.391326		-43.766435		-0.350725		1.267305		1.865057		3.381755		35.887924		-3.120221		
0.523111		-0.000000		0.000000		0.000000		0.083522		0.000000		0.166275		0.000000		0.000000		-0.000000		0.000000		0.000000		0.000000		-0.190458		0.000000		0.249503		0.000000		-0.000000		0.000000		-13.998636		494.917778		-66.574695		0.381251		1.274867		1.872041		0.877173		-31.012193		4.171660		45.669682		495.393718		-48.593788		-0.350719		1.267331		1.865135		3.269657		35.467037		-3.479015		
0.526040		0.000000		0.000000		0.000000		0.083522		0.000000		0.166275		0.000000		0.000000		-0.000000		0.000000		0.000000		0.000000		-0.190458		0.000000		0.249503		0.000000		-0.000000		0.000000		-12.469893		487.103125		-71.425982		0.381260		1.274901		1.872153		0.782277		-30.557560		4.480785		43.765600		486.556420		-53.418190		-0.350718		1.267355		1.865204		3.146765		34.983627		-3.840796		
0.528970		0.000000		-0.000000		-0.000000		0.083522		0.000000		0.166275		-0.000000		-0.000000		0.000000		0.000000		0.000000		0.000000		-0.190458		0.000000		0.249503		0.000000		-0.000000		0.000000		-10.827980		478.826607		-76.207843		0.381260		1.274933		1.872260		0.679811		-30.062088		4.784544		41.716712		476.808716		-58.269805		-0.350719		1.267378		1.865261		3.012204		34.428532		-4.207443		
0.531899		0.000000		-0.000000		-0.000000		0.083522		0.000000		0.166275		-0.000000		-0.000000		0.000000		-0.000000		0.000000		0.000000		-0.190458		0.000000		0.249503		0.000000		-0.000000		0.000000		-9.055166		470.028470		-80.879050		0.381251		1.274967		1.872360		0.568795		-29.524560		5.080370		39.528749		466.077630		-63.177607		-0.350720		1.267401		1.865310		2.865775		33.789950		-4.580293		
0.534828		0.000000		-0.000000		-0.000000		0.083522		0.000000		0.166275		-0.000000		-0.000000		0.000000		-0.000000		-0.000000		0.000000		-0.190458		0.000000		0.249503		-0.000000		0.000000		-0.000000		-7.147934		460.632786		-85.395637		0.381229		1.275008		1.872450		0.449092		-28.940724		5.365253		37.229099		454.278751		-68.147412		-0.350716		1.267427		1.865354		2.708797		33.053442		-4.958435		
0.537758		0.000000		-0.000000		-0.000000		0.083522		0.000000		0.166275		-0.000000		-0.000000		0.000000		-0.000000		-0.000000		-0.000000		-0.190458		0.000000		0.249503		-0.000000		0.000000		-0.000000		-5.114833		450.543424		-89.718649		0.381196		1.275059		1.872527		0.321297		-28.301626		5.635823		34.868931		441.305461		-73.145100		-0.350705		1.267457		1.865393		2.544401		32.202271		-5.337442		
